<mxfile host="app.diagrams.net" agent="Mozilla/5.0 (Windows NT 10.0; Win64; x64) AppleWebKit/537.36 (KHTML, like Gecko) Chrome/133.0.0.0 Safari/537.36 Edg/133.0.0.0" version="26.0.14">
  <diagram id="-4BtNLVw5wS1H3gB25Vq" name="Страница — 1">
    <mxGraphModel dx="704" dy="773" grid="1" gridSize="10" guides="1" tooltips="1" connect="1" arrows="1" fold="1" page="1" pageScale="1" pageWidth="827" pageHeight="1169" math="0" shadow="0">
      <root>
        <mxCell id="0" />
        <mxCell id="1" parent="0" />
        <mxCell id="JjWiIsDu3saNrFcIr1nV-1" value="Учитель" style="shape=umlActor;verticalLabelPosition=bottom;verticalAlign=top;html=1;outlineConnect=0;" vertex="1" parent="1">
          <mxGeometry x="80" y="20" width="30" height="60" as="geometry" />
        </mxCell>
        <mxCell id="JjWiIsDu3saNrFcIr1nV-2" value="Учитель" style="shape=umlActor;verticalLabelPosition=bottom;verticalAlign=top;html=1;outlineConnect=0;" vertex="1" parent="1">
          <mxGeometry x="80" y="470" width="30" height="60" as="geometry" />
        </mxCell>
        <mxCell id="JjWiIsDu3saNrFcIr1nV-3" value="" style="endArrow=none;dashed=1;html=1;rounded=0;exitX=0.5;exitY=0;exitDx=0;exitDy=0;exitPerimeter=0;" edge="1" parent="1" source="JjWiIsDu3saNrFcIr1nV-11" target="JjWiIsDu3saNrFcIr1nV-1">
          <mxGeometry width="50" height="50" relative="1" as="geometry">
            <mxPoint x="310" y="120" as="sourcePoint" />
            <mxPoint x="360" y="70" as="targetPoint" />
            <Array as="points" />
          </mxGeometry>
        </mxCell>
        <mxCell id="JjWiIsDu3saNrFcIr1nV-4" value="Система" style="rounded=0;whiteSpace=wrap;html=1;" vertex="1" parent="1">
          <mxGeometry x="310" y="40" width="90" height="40" as="geometry" />
        </mxCell>
        <mxCell id="JjWiIsDu3saNrFcIr1nV-5" value="Система" style="rounded=0;whiteSpace=wrap;html=1;" vertex="1" parent="1">
          <mxGeometry x="310" y="480" width="90" height="40" as="geometry" />
        </mxCell>
        <mxCell id="JjWiIsDu3saNrFcIr1nV-6" value="" style="endArrow=none;dashed=1;html=1;rounded=0;entryX=0.5;entryY=1;entryDx=0;entryDy=0;exitX=0.5;exitY=0;exitDx=0;exitDy=0;" edge="1" parent="1" source="JjWiIsDu3saNrFcIr1nV-9" target="JjWiIsDu3saNrFcIr1nV-4">
          <mxGeometry width="50" height="50" relative="1" as="geometry">
            <mxPoint x="310" y="220" as="sourcePoint" />
            <mxPoint x="360" y="170" as="targetPoint" />
          </mxGeometry>
        </mxCell>
        <mxCell id="JjWiIsDu3saNrFcIr1nV-7" value="Авторизация" style="html=1;verticalAlign=bottom;endArrow=block;curved=0;rounded=0;" edge="1" parent="1" source="JjWiIsDu3saNrFcIr1nV-11" target="JjWiIsDu3saNrFcIr1nV-9">
          <mxGeometry width="80" relative="1" as="geometry">
            <mxPoint x="90" y="160" as="sourcePoint" />
            <mxPoint x="200" y="220" as="targetPoint" />
            <Array as="points">
              <mxPoint x="170" y="150" />
            </Array>
          </mxGeometry>
        </mxCell>
        <mxCell id="JjWiIsDu3saNrFcIr1nV-8" value="" style="endArrow=none;dashed=1;html=1;rounded=0;entryX=0.5;entryY=1;entryDx=0;entryDy=0;exitX=0.5;exitY=0;exitDx=0;exitDy=0;" edge="1" parent="1" source="JjWiIsDu3saNrFcIr1nV-5" target="JjWiIsDu3saNrFcIr1nV-9">
          <mxGeometry width="50" height="50" relative="1" as="geometry">
            <mxPoint x="355" y="440" as="sourcePoint" />
            <mxPoint x="355" y="80" as="targetPoint" />
          </mxGeometry>
        </mxCell>
        <mxCell id="JjWiIsDu3saNrFcIr1nV-9" value="" style="html=1;points=[[0,0,0,0,5],[0,1,0,0,-5],[1,0,0,0,5],[1,1,0,0,-5]];perimeter=orthogonalPerimeter;outlineConnect=0;targetShapes=umlLifeline;portConstraint=eastwest;newEdgeStyle={&quot;curved&quot;:0,&quot;rounded&quot;:0};" vertex="1" parent="1">
          <mxGeometry x="350" y="120" width="10" height="320" as="geometry" />
        </mxCell>
        <mxCell id="JjWiIsDu3saNrFcIr1nV-10" value="" style="endArrow=none;dashed=1;html=1;rounded=0;exitX=0.5;exitY=0;exitDx=0;exitDy=0;exitPerimeter=0;" edge="1" parent="1" source="JjWiIsDu3saNrFcIr1nV-2" target="JjWiIsDu3saNrFcIr1nV-11">
          <mxGeometry width="50" height="50" relative="1" as="geometry">
            <mxPoint x="95" y="440" as="sourcePoint" />
            <mxPoint x="95" y="80" as="targetPoint" />
            <Array as="points" />
          </mxGeometry>
        </mxCell>
        <mxCell id="JjWiIsDu3saNrFcIr1nV-11" value="" style="html=1;points=[[0,0,0,0,5],[0,1,0,0,-5],[1,0,0,0,5],[1,1,0,0,-5]];perimeter=orthogonalPerimeter;outlineConnect=0;targetShapes=umlLifeline;portConstraint=eastwest;newEdgeStyle={&quot;curved&quot;:0,&quot;rounded&quot;:0};" vertex="1" parent="1">
          <mxGeometry x="90" y="120" width="10" height="320" as="geometry" />
        </mxCell>
        <mxCell id="JjWiIsDu3saNrFcIr1nV-12" value="Успешная Авторизация" style="html=1;verticalAlign=bottom;endArrow=open;dashed=1;endSize=8;curved=0;rounded=0;" edge="1" parent="1" source="JjWiIsDu3saNrFcIr1nV-9" target="JjWiIsDu3saNrFcIr1nV-11">
          <mxGeometry relative="1" as="geometry">
            <mxPoint x="200" y="285" as="targetPoint" />
            <mxPoint x="240" y="340" as="sourcePoint" />
            <Array as="points">
              <mxPoint x="290" y="200" />
            </Array>
          </mxGeometry>
        </mxCell>
        <mxCell id="JjWiIsDu3saNrFcIr1nV-13" value="Выбор предмета и класса" style="html=1;verticalAlign=bottom;endArrow=block;curved=0;rounded=0;" edge="1" parent="1">
          <mxGeometry width="80" relative="1" as="geometry">
            <mxPoint x="100" y="250" as="sourcePoint" />
            <mxPoint x="350" y="250" as="targetPoint" />
            <Array as="points">
              <mxPoint x="170" y="250" />
            </Array>
          </mxGeometry>
        </mxCell>
        <mxCell id="JjWiIsDu3saNrFcIr1nV-14" value="Список Учеников и Расписания" style="html=1;verticalAlign=bottom;endArrow=open;dashed=1;endSize=8;curved=0;rounded=0;" edge="1" parent="1">
          <mxGeometry relative="1" as="geometry">
            <mxPoint x="100" y="300" as="targetPoint" />
            <mxPoint x="350" y="300" as="sourcePoint" />
            <Array as="points">
              <mxPoint x="290" y="300" />
            </Array>
          </mxGeometry>
        </mxCell>
        <mxCell id="JjWiIsDu3saNrFcIr1nV-15" value="БД Учебный процесс" style="shape=cylinder3;whiteSpace=wrap;html=1;boundedLbl=1;backgroundOutline=1;size=15;" vertex="1" parent="1">
          <mxGeometry x="510" y="470" width="60" height="80" as="geometry" />
        </mxCell>
        <mxCell id="JjWiIsDu3saNrFcIr1nV-16" value="БД Учебный процесс" style="shape=cylinder3;whiteSpace=wrap;html=1;boundedLbl=1;backgroundOutline=1;size=15;" vertex="1" parent="1">
          <mxGeometry x="510" y="20" width="60" height="80" as="geometry" />
        </mxCell>
        <mxCell id="JjWiIsDu3saNrFcIr1nV-17" value="" style="endArrow=none;dashed=1;html=1;rounded=0;entryX=0.5;entryY=1;entryDx=0;entryDy=0;entryPerimeter=0;exitX=0.5;exitY=0;exitDx=0;exitDy=0;exitPerimeter=0;" edge="1" parent="1" source="JjWiIsDu3saNrFcIr1nV-19" target="JjWiIsDu3saNrFcIr1nV-16">
          <mxGeometry width="50" height="50" relative="1" as="geometry">
            <mxPoint x="310" y="320" as="sourcePoint" />
            <mxPoint x="360" y="270" as="targetPoint" />
          </mxGeometry>
        </mxCell>
        <mxCell id="JjWiIsDu3saNrFcIr1nV-18" value="" style="endArrow=none;dashed=1;html=1;rounded=0;entryX=0.5;entryY=1;entryDx=0;entryDy=0;entryPerimeter=0;exitX=0.5;exitY=0;exitDx=0;exitDy=0;exitPerimeter=0;" edge="1" parent="1" source="JjWiIsDu3saNrFcIr1nV-15" target="JjWiIsDu3saNrFcIr1nV-19">
          <mxGeometry width="50" height="50" relative="1" as="geometry">
            <mxPoint x="540" y="440" as="sourcePoint" />
            <mxPoint x="540" y="100" as="targetPoint" />
          </mxGeometry>
        </mxCell>
        <mxCell id="JjWiIsDu3saNrFcIr1nV-19" value="" style="html=1;points=[[0,0,0,0,5],[0,1,0,0,-5],[1,0,0,0,5],[1,1,0,0,-5]];perimeter=orthogonalPerimeter;outlineConnect=0;targetShapes=umlLifeline;portConstraint=eastwest;newEdgeStyle={&quot;curved&quot;:0,&quot;rounded&quot;:0};" vertex="1" parent="1">
          <mxGeometry x="535" y="120" width="10" height="320" as="geometry" />
        </mxCell>
        <mxCell id="JjWiIsDu3saNrFcIr1nV-20" value="Сохранение Заданий" style="html=1;verticalAlign=bottom;endArrow=block;curved=0;rounded=0;" edge="1" parent="1">
          <mxGeometry x="0.0057" width="80" relative="1" as="geometry">
            <mxPoint x="360" y="370" as="sourcePoint" />
            <mxPoint x="535" y="370" as="targetPoint" />
            <Array as="points">
              <mxPoint x="390" y="370" />
            </Array>
            <mxPoint as="offset" />
          </mxGeometry>
        </mxCell>
        <mxCell id="JjWiIsDu3saNrFcIr1nV-21" value="Подтверждение Сохранения" style="html=1;verticalAlign=bottom;endArrow=open;dashed=1;endSize=8;curved=0;rounded=0;" edge="1" parent="1">
          <mxGeometry relative="1" as="geometry">
            <mxPoint x="360" y="400" as="targetPoint" />
            <mxPoint x="535" y="400" as="sourcePoint" />
            <Array as="points" />
          </mxGeometry>
        </mxCell>
        <mxCell id="JjWiIsDu3saNrFcIr1nV-22" value="Домашнее Задание сохранено" style="html=1;verticalAlign=bottom;endArrow=open;dashed=1;endSize=8;curved=0;rounded=0;" edge="1" parent="1">
          <mxGeometry relative="1" as="geometry">
            <mxPoint x="100" y="420" as="targetPoint" />
            <mxPoint x="350" y="420" as="sourcePoint" />
            <Array as="points">
              <mxPoint x="290" y="420" />
            </Array>
            <mxPoint as="offset" />
          </mxGeometry>
        </mxCell>
        <mxCell id="JjWiIsDu3saNrFcIr1nV-23" value="Ввод Домашнего Задания" style="html=1;verticalAlign=bottom;endArrow=block;curved=0;rounded=0;" edge="1" parent="1">
          <mxGeometry width="80" relative="1" as="geometry">
            <mxPoint x="100" y="340" as="sourcePoint" />
            <mxPoint x="350" y="340" as="targetPoint" />
            <Array as="points">
              <mxPoint x="170" y="340" />
            </Array>
          </mxGeometry>
        </mxCell>
      </root>
    </mxGraphModel>
  </diagram>
</mxfile>
